<?xml version="1.0" standalone="no"?>
<!DOCTYPE svg PUBLIC "-//W3C//DTD SVG 20010904//EN"
 "http://www.w3.org/TR/2001/REC-SVG-20010904/DTD/svg10.dtd">
<svg version="1.0" xmlns="http://www.w3.org/2000/svg"
 width="3900.000000pt" height="3900.000000pt" viewBox="0 0 3900.000000 3900.000000"
 preserveAspectRatio="xMidYMid meet">
<metadata>
Created by potrace 1.16, written by Peter Selinger 2001-2019
</metadata>
<g transform="translate(0.000000,3900.000000) scale(0.728972,-2.378049)"
fill="#000000" stroke="none">
<path d="M360 1101 l0 -509 23 -6 c49 -13 303 -6 349 10 97 33 175 137 199
269 14 74 6 241 -15 311 -36 118 -111 174 -232 174 -55 0 -81 -5 -120 -25 -27
-14 -50 -25 -51 -25 -2 0 -3 70 -3 155 l0 155 -75 0 -75 0 0 -509z m368 114
c17 -19 36 -51 41 -72 32 -113 20 -311 -22 -387 -35 -64 -73 -80 -190 -77
l-48 1 3 233 c3 223 4 234 27 274 28 49 50 61 112 62 41 1 51 -3 77 -34z"/>
<path d="M1080 1100 l0 -510 75 0 75 0 0 510 0 510 -75 0 -75 0 0 -510z"/>
<path d="M4490 1100 l0 -510 75 0 75 0 0 268 c0 294 6 323 65 370 40 31 123
31 153 0 39 -42 42 -70 42 -359 l0 -279 75 0 75 0 0 283 c0 303 -6 354 -52
412 -62 79 -261 90 -340 18 -17 -15 -18 -9 -18 145 l0 162 -75 0 -75 0 0 -510z"/>
<path d="M3621 1574 c-45 -57 -11 -134 60 -134 52 0 79 27 79 80 0 53 -27 80
-79 80 -31 0 -44 -6 -60 -26z"/>
<path d="M1562 1332 c-84 -33 -149 -121 -173 -234 -17 -80 -6 -271 20 -338 26
-69 71 -124 124 -153 36 -19 57 -22 153 -22 106 0 113 1 160 30 91 57 144 187
144 354 0 190 -70 325 -189 366 -60 20 -184 19 -239 -3z m192 -103 c72 -56
103 -211 76 -378 -20 -120 -63 -171 -144 -171 -36 0 -52 6 -80 30 -54 48 -71
110 -71 265 0 114 3 136 23 180 31 69 65 95 123 95 32 0 55 -7 73 -21z"/>
<path d="M2263 1325 c-58 -29 -96 -74 -127 -149 -28 -70 -30 -304 -3 -381 39
-112 113 -164 234 -165 79 0 116 10 151 42 l22 21 0 -41 c0 -66 -19 -138 -44
-161 -39 -37 -119 -41 -294 -16 l-53 8 3 -49 3 -49 70 -13 c105 -20 279 -12
330 15 51 27 89 67 112 118 16 36 18 81 21 438 l3 398 -47 -3 c-44 -3 -48 -6
-58 -36 l-12 -33 -19 22 c-57 63 -200 80 -292 34z m210 -95 c46 -37 62 -99 62
-250 0 -197 -29 -250 -139 -250 -36 0 -50 6 -73 29 -39 39 -54 88 -60 206 -7
132 8 204 51 250 30 31 39 35 83 35 35 0 58 -6 76 -20z"/>
<path d="M2983 1325 c-58 -29 -96 -74 -127 -149 -28 -70 -30 -304 -3 -381 39
-112 113 -164 234 -165 79 0 116 10 151 42 l22 21 0 -41 c0 -66 -19 -138 -44
-161 -39 -37 -119 -41 -294 -16 l-53 8 3 -49 3 -49 70 -13 c105 -20 279 -12
330 15 51 27 89 67 112 118 16 36 18 81 21 438 l3 398 -47 -3 c-44 -3 -48 -6
-58 -36 l-12 -33 -19 22 c-57 63 -200 80 -292 34z m210 -95 c46 -37 62 -99 62
-250 0 -197 -29 -250 -139 -250 -36 0 -50 6 -73 29 -39 39 -54 88 -60 206 -7
132 8 204 51 250 30 31 39 35 83 35 35 0 58 -6 76 -20z"/>
<path d="M4042 1335 c-100 -44 -136 -102 -130 -211 5 -97 31 -131 159 -201 52
-29 104 -64 117 -78 24 -28 30 -82 12 -116 -26 -48 -137 -64 -236 -34 -73 22
-74 22 -74 -39 l0 -53 57 -12 c31 -6 97 -11 147 -11 75 0 100 4 142 24 87 41
133 128 119 230 -12 93 -52 137 -185 206 -44 24 -90 54 -101 69 -28 35 -20 87
18 120 26 23 32 23 135 19 l108 -6 0 48 c0 47 0 47 -37 54 -70 11 -216 6 -251
-9z"/>
<path d="M3520 1295 l0 -45 45 0 45 0 0 -330 0 -330 75 0 75 0 0 375 0 375
-120 0 -120 0 0 -45z"/>
</g>
</svg>
