<?xml version="1.0" standalone="no"?>
<!DOCTYPE svg PUBLIC "-//W3C//DTD SVG 20010904//EN"
 "http://www.w3.org/TR/2001/REC-SVG-20010904/DTD/svg10.dtd">
<svg version="1.0" xmlns="http://www.w3.org/2000/svg"
 width="578.000000pt" height="126.000000pt" viewBox="0 0 578.000000 126.000000"
 preserveAspectRatio="xMidYMid meet">
<metadata>
</metadata>
<g transform="translate(0.000000,126.000000) scale(0.100000,-0.100000)"
fill="#000000" stroke="none">
<path d="M312 763 l3 -328 28 -57 c30 -61 74 -105 140 -140 36 -20 57 -23 147
-23 98 0 109 2 158 29 60 33 101 81 135 153 18 40 22 66 22 153 0 93 -3 112
-26 160 -30 63 -86 123 -144 153 -31 16 -63 22 -147 25 l-108 4 0 99 0 99 -45
0 -45 0 0 -139 0 -138 128 -5 c147 -6 187 -21 244 -88 41 -47 58 -97 58 -170
0 -73 -17 -123 -58 -170 -53 -63 -101 -83 -188 -78 -92 4 -144 37 -186 117
l-28 53 0 309 0 309 -46 0 -45 0 3 -327z"/>
<path d="M1040 650 l0 -440 200 0 200 0 0 45 0 45 -155 0 -155 0 0 395 0 395
-45 0 -45 0 0 -440z"/>
<path d="M1160 720 l0 -370 140 0 140 0 0 45 0 45 -95 0 -95 0 0 325 0 325
-45 0 -45 0 0 -370z"/>
<path d="M1740 1081 c-105 -34 -203 -121 -246 -218 -55 -124 -55 -302 0 -426
32 -74 106 -151 181 -191 59 -30 63 -31 195 -31 132 0 136 1 195 32 147 77
220 210 220 403 0 193 -73 326 -220 403 -56 29 -68 31 -180 34 -66 1 -131 -1
-145 -6z m274 -114 c70 -32 130 -95 158 -165 32 -81 32 -223 0 -304 -47 -118
-158 -192 -292 -192 -95 -1 -154 16 -216 63 -169 128 -164 451 9 570 95 65
235 76 341 28z"/>
<path d="M1742 932 c-58 -23 -110 -76 -141 -142 -36 -79 -36 -201 0 -280 28
-59 75 -112 124 -138 41 -22 191 -28 253 -11 63 17 142 96 165 163 22 65 22
187 0 252 -21 63 -102 145 -159 162 -60 18 -190 14 -242 -6z m237 -97 c129
-66 130 -304 2 -369 -38 -20 -103 -28 -155 -21 -87 13 -149 76 -161 165 -16
120 38 216 136 241 45 11 143 3 178 -16z"/>
<path d="M2620 1081 c-102 -32 -203 -121 -246 -218 -55 -124 -55 -302 0 -426
32 -74 106 -151 181 -190 l60 -32 188 -3 187 -4 0 276 0 276 -155 0 -155 0 0
-45 0 -45 110 0 110 0 0 -186 0 -186 -117 5 c-65 3 -135 11 -155 17 -68 24
-130 80 -168 154 -34 66 -35 73 -35 176 0 103 1 110 35 176 38 74 99 130 168
154 21 7 106 15 200 17 l162 5 0 44 0 44 -172 -1 c-95 0 -184 -4 -198 -8z"/>
<path d="M3360 1081 c-102 -32 -203 -121 -246 -218 -55 -124 -55 -302 0 -426
32 -74 106 -151 181 -190 l60 -32 188 -3 187 -4 0 276 0 276 -155 0 -155 0 0
-45 0 -45 110 0 110 0 0 -186 0 -186 -117 5 c-65 3 -135 11 -155 17 -68 24
-130 80 -168 154 -34 66 -35 73 -35 176 0 103 1 110 35 176 38 74 99 130 168
154 21 7 106 15 200 17 l162 5 0 44 0 44 -172 -1 c-95 0 -184 -4 -198 -8z"/>
<path d="M3840 650 l0 -440 45 0 45 0 0 440 0 440 -45 0 -45 0 0 -440z"/>
<path d="M3960 650 l0 -440 45 0 45 0 0 440 0 440 -45 0 -45 0 0 -440z"/>
<path d="M4284 1076 c-93 -41 -148 -135 -148 -256 0 -166 99 -269 259 -270 84
0 115 -16 115 -60 0 -19 -7 -33 -19 -40 -11 -6 -89 -10 -180 -10 l-161 0 0
-45 0 -45 180 0 c210 0 226 5 260 75 27 55 23 108 -10 155 -31 43 -64 57 -158
63 -68 4 -91 10 -123 32 -123 81 -94 276 46 314 22 6 111 11 198 11 l157 0 0
45 0 45 -192 0 c-139 -1 -202 -5 -224 -14z"/>
<path d="M4810 650 l0 -440 45 0 45 0 0 440 0 440 -45 0 -45 0 0 -440z"/>
<path d="M4930 885 l0 -205 185 0 185 0 0 205 0 205 -45 0 -45 0 0 -160 0
-160 -95 0 -95 0 0 160 0 160 -45 0 -45 0 0 -205z"/>
<path d="M5330 650 l0 -440 45 0 45 0 0 440 0 440 -45 0 -45 0 0 -440z"/>
<path d="M2635 938 c-32 -11 -91 -52 -113 -78 -7 -8 -25 -40 -40 -70 -22 -46
-26 -69 -26 -140 0 -98 27 -172 84 -227 57 -56 93 -68 218 -71 l112 -4 0 141
0 141 -95 0 -95 0 0 -45 0 -45 50 0 50 0 0 -51 0 -52 -56 7 c-112 13 -167 67
-180 178 -8 65 8 127 42 168 48 57 74 64 247 68 l157 4 0 44 0 44 -162 -1
c-90 0 -176 -5 -193 -11z"/>
<path d="M3375 938 c-32 -11 -91 -52 -113 -78 -7 -8 -25 -40 -40 -70 -22 -46
-26 -69 -26 -140 0 -98 27 -172 84 -227 57 -56 93 -68 218 -71 l112 -4 0 141
0 141 -95 0 -95 0 0 -45 0 -45 50 0 50 0 0 -51 0 -52 -56 7 c-112 13 -167 67
-180 178 -8 65 8 127 42 168 48 57 74 64 247 68 l157 4 0 44 0 44 -162 -1
c-90 0 -176 -5 -193 -11z"/>
<path d="M4304 916 c-31 -31 -34 -39 -34 -96 0 -57 3 -65 34 -96 30 -30 41
-34 84 -34 79 0 152 -18 190 -46 99 -76 94 -243 -9 -311 -42 -28 -44 -28 -231
-31 l-188 -4 0 -44 0 -44 195 0 c221 0 237 4 309 70 59 55 81 112 81 215 0 67
-4 89 -28 137 -48 98 -132 148 -249 148 -67 0 -98 12 -98 38 0 38 19 42 182
42 l158 0 0 45 0 45 -181 0 -181 0 -34 -34z"/>
<path d="M430 638 c0 -146 10 -187 56 -238 46 -51 80 -63 159 -58 53 3 71 9
102 34 111 88 111 260 0 348 -38 31 -40 31 -178 34 l-139 4 0 -124z m225 22
c57 -13 85 -49 85 -110 0 -41 -5 -56 -29 -82 -25 -28 -34 -32 -80 -32 -43 0
-56 5 -79 27 -25 25 -27 35 -30 117 l-4 90 49 0 c26 0 66 -5 88 -10z"/>
<path d="M4930 420 l0 -210 45 0 45 0 0 165 0 165 95 0 95 0 0 -165 0 -165 45
0 45 0 0 210 0 210 -185 0 -185 0 0 -210z"/>
</g>
</svg>
